<svg xmlns="http://www.w3.org/2000/svg" xmlns:xlink="http://www.w3.org/1999/xlink" width="70" height="70" viewBox="0 0 70 70"><defs><path id="a1g6a" d="M375 0h70v70h-70z"/><path id="a1g6b" d="M403.07 27.16v-4.54c0-.36-.06-.6-.17-.7-.1-.1-.34-.16-.7-.16H400c-1.8 0-2.7-.88-2.7-2.65v-4.9c0-1.74.93-2.61 2.77-2.61h2.9c1.85 0 2.77.87 2.77 2.61v2.73h-2.7v-2.31c0-.36-.06-.6-.18-.7-.12-.11-.36-.16-.71-.16h-1.25c-.36 0-.6.05-.71.16-.12.1-.18.34-.18.7v4.13c0 .35.06.59.18.7.12.1.35.16.7.16h2.18c1.82 0 2.73.87 2.73 2.61v5.35c0 1.74-.93 2.61-2.8 2.61h-2.87c-1.84 0-2.77-.87-2.77-2.61v-2.73h2.7v2.31c0 .36.07.6.19.7.11.11.35.17.7.17h1.26c.35 0 .59-.06.7-.17.1-.1.16-.34.16-.7zm12.3-3.44h3.24l-1.7-9.8zm4.33 6.47l-.74-4.3h-3.92l-.68 4.3h-2.68l3.3-18.6h3.9l3.53 18.6zm-13.72 9.12h-2.7v-2.46c0-.36-.06-.59-.18-.7-.12-.1-.36-.16-.72-.16h-1.51c-.36 0-.6.05-.71.16-.12.11-.18.34-.18.7v12.68c0 .36.06.6.18.7.12.11.35.17.71.17h1.51c.36 0 .6-.06.72-.17.12-.1.18-.34.18-.7V45h-1.49V42.9h4.19v6.95c0 1.76-.92 2.64-2.76 2.64h-3.18c-1.84 0-2.76-.88-2.76-2.64V36.5c0-1.74.92-2.61 2.76-2.61h3.18c1.84 0 2.76.87 2.76 2.61zm9.9 11h5.37v2.16h-8.08v-18.6h7.87v2.18h-5.17v5.73h4.28v2.17h-4.28zm-18.44 5.16h23.76v2.37h-23.76z"/></defs><g><g transform="translate(-375)"><use fill="#f63c3c" xlink:href="#a1g6a"/></g><g transform="translate(-375)"><use fill="#fff" xlink:href="#a1g6b"/></g></g></svg>