<svg xmlns="http://www.w3.org/2000/svg" xmlns:xlink="http://www.w3.org/1999/xlink" width="48" height="48" viewBox="0 0 48 48"><defs><path id="96gca" d="M979.5 2505h39a4.5 4.5 0 0 1 4.5 4.5v27a4.5 4.5 0 0 1-4.5 4.5h-39a4.5 4.5 0 0 1-4.5-4.5v-27a4.5 4.5 0 0 1 4.5-4.5zm-1.5 6v24a3 3 0 0 0 3 3h36a3 3 0 0 0 3-3v-24a3 3 0 0 0-3-3h-36a3 3 0 0 0-3 3zm4.5-12h33a1.5 1.5 0 0 1 0 3h-33a1.5 1.5 0 0 1 0-3zm4.5-6h24a1.5 1.5 0 0 1 0 3h-24a1.5 1.5 0 1 1 0-3z"/></defs><g><g transform="translate(-975 -2493)"><use fill="#f63c3c" xlink:href="#96gca"/></g></g></svg>